<?xml version="1.0" encoding="utf-8"?>
<!-- Generator: Adobe Illustrator 22.0.1, SVG Export Plug-In . SVG Version: 6.00 Build 0)  -->
<svg version="1.1" id="Layer_1" xmlns="http://www.w3.org/2000/svg" xmlns:xlink="http://www.w3.org/1999/xlink" x="0px" y="0px"
	 viewBox="0 0 1280 207.4" style="enable-background:new 0 0 1280 207.4;" xml:space="preserve">
<style type="text/css">
	.st0{fill:#FFFFFF;}
	.st1{font-family:'OpenSans-Bold';}
	.st2{font-size:177.9538px;}
	.st3{fill:#D0D9DC;}
</style>
<text transform="matrix(1 0 0 1 51.7656 171.6274)" class="st0 st1 st2">Linked      List</text>
<g>
	<path class="st3" d="M854.9,71h-6.8c1.4,4.6,2.2,9.3,2.2,14.3c0,5.1-0.8,9.8-2.2,14.3h6.9c12.1,0,22,9.9,22,22s-9.9,22-22,22h-87.6
		c-12.1,0-22-9.9-22-22s9.9-22,22-22h58.1c2.7-4.2,4.3-9,4.3-14.3c0-5.2-1.6-10.2-4.3-14.3h-58.1c-27.9,0-50.6,22.7-50.6,50.6
		s22.7,50.6,50.6,50.6h87.5c27.9,0,50.6-22.7,50.6-50.6S882.8,71,854.9,71z"/>
	<path class="st0" d="M803.8,125.6h-53.6v-8.2h53.6c17.7,0,32.2-14.5,32.2-32.2S821.5,53,803.8,53h-87.5
		c-17.7,0.1-32.2,14.6-32.2,32.3c0,16.4,12.8,30.5,29.2,32.1l-0.8,8.1c-20.5-2-36.5-19.6-36.5-40.2c0-22.3,18.1-40.4,40.4-40.4h87.3
		c22.3,0,40.4,18.1,40.4,40.4C844.2,107.5,826.1,125.6,803.8,125.6z"/>
</g>
</svg>
